<!DOCTYPE svg PUBLIC "-//W3C//DTD SVG 1.1//EN" "http://www.w3.org/Graphics/SVG/1.1/DTD/svg11.dtd">
<!-- Uploaded to: SVG Repo, www.svgrepo.com, Transformed by: SVG Repo Mixer Tools -->
<svg fill="#df4343" height="800px" width="800px" version="1.1" id="Layer_1" xmlns="http://www.w3.org/2000/svg" xmlns:xlink="http://www.w3.org/1999/xlink" viewBox="0 0 512 512" xml:space="preserve" stroke="#df4343">
<g id="SVGRepo_bgCarrier" stroke-width="0"/>
<g id="SVGRepo_tracerCarrier" stroke-linecap="round" stroke-linejoin="round"/>
<g id="SVGRepo_iconCarrier"> <g> <g> <path d="M490.667,256v-21.333c0-11.776-9.557-21.333-21.333-21.333S448,222.891,448,234.667V256h-21.333V106.667 c0-35.285-28.715-64-64-64H64c-35.285,0-64,28.715-64,64V256h384v42.667H0V384c0,11.776,9.557,21.333,21.333,21.333h21.333 c0,35.285,28.715,64,64,64s64-28.715,64-64h64c0,35.285,28.715,64,64,64s64-28.715,64-64h42.667 c11.776,0,21.333-9.557,21.333-21.333v-85.333h64c11.776,0,21.333-9.557,21.333-21.333S502.443,256,490.667,256z M106.667,426.667 c-11.755,0-21.333-9.579-21.333-21.333c0-4.715,1.835-8.853,4.437-12.373c8.171-10.88,25.621-10.88,33.792,0 c2.603,3.52,4.437,7.659,4.437,12.373C128,417.088,118.421,426.667,106.667,426.667z M298.667,426.667 c-11.755,0-21.333-9.579-21.333-21.333c0-4.715,1.835-8.853,4.437-12.373c8.171-10.88,25.621-10.88,33.792,0 c2.603,3.52,4.437,7.659,4.437,12.373C320,417.088,310.421,426.667,298.667,426.667z"/> </g> </g> </g>
</svg>